<?xml version="1.0" encoding="utf-8"?>
<!-- Generator: Adobe Illustrator 23.0.1, SVG Export Plug-In . SVG Version: 6.00 Build 0)  -->
<svg version="1.1" id="Layer_1" xmlns="http://www.w3.org/2000/svg" xmlns:xlink="http://www.w3.org/1999/xlink" x="0px" y="0px"
	 viewBox="0 0 110 18.7" style="enable-background:new 0 0 110 18.7;" xml:space="preserve">
<style type="text/css">
	.st0{fill:#EAC94A;}
</style>
<path id="Escape._1_" class="st0" d="M29.8,0h9.8l0.6,2.8H33v3.2h6.1v2.5H33v3.3h7.3l-0.6,2.8h-9.8V0z M52,11.3c0,0.5-0.1,1-0.3,1.4
	c-0.2,0.4-0.6,0.8-1,1.1c-0.5,0.3-1,0.6-1.5,0.7c-0.7,0.2-1.3,0.3-2,0.3c-0.8,0-1.6-0.1-2.4-0.3c-0.7-0.2-1.4-0.5-2.1-0.9l-0.4-2.9
	h0.1c0.7,0.5,1.5,1,2.4,1.3c0.8,0.4,1.8,0.6,2.7,0.6c0.5,0,0.9-0.1,1.3-0.3c0.3-0.1,0.5-0.4,0.5-0.7c0-0.2,0-0.3-0.1-0.4
	c-0.1-0.2-0.2-0.3-0.4-0.4c-0.3-0.1-0.5-0.2-0.8-0.3c-0.3-0.1-0.8-0.2-1.3-0.4c-0.5-0.1-1.1-0.3-1.6-0.5c-0.4-0.2-0.9-0.4-1.2-0.7
	C43.3,8.6,43,8.3,42.8,8c-0.2-0.4-0.3-0.9-0.3-1.3c0-0.5,0.1-1,0.3-1.4c0.2-0.4,0.5-0.8,0.9-1.1c0.4-0.3,0.9-0.6,1.5-0.7
	c0.7-0.2,1.3-0.3,2-0.3c0.8,0,1.5,0.1,2.2,0.3c0.6,0.2,1.1,0.4,1.7,0.7v2.6h-0.1c-0.3-0.2-0.6-0.3-0.9-0.5c-0.3-0.2-0.7-0.3-1-0.4
	c-0.3-0.1-0.7-0.2-1-0.3c-0.3-0.1-0.7-0.1-1-0.1c-0.4,0-0.9,0.1-1.3,0.3c-0.3,0.1-0.4,0.4-0.4,0.7c0,0.1,0,0.3,0.1,0.4
	c0.1,0.1,0.3,0.3,0.4,0.3c0.3,0.1,0.5,0.2,0.8,0.3c0.3,0.1,0.8,0.2,1.3,0.3c0.6,0.1,1.2,0.3,1.7,0.5C50.2,8.4,50.6,8.7,51,9
	c0.3,0.3,0.6,0.6,0.8,1C51.9,10.4,52,10.9,52,11.3z M63.5,13.9c-0.5,0.3-1.1,0.5-1.7,0.7c-0.7,0.2-1.4,0.3-2.1,0.3
	c-0.8,0-1.6-0.1-2.3-0.4c-0.7-0.3-1.3-0.7-1.8-1.2c-0.5-0.5-0.9-1.2-1.2-1.9C54,10.6,53.8,9.8,53.8,9c0-0.8,0.1-1.6,0.4-2.3
	c0.6-1.4,1.7-2.5,3.2-3.1c0.8-0.3,1.6-0.5,2.5-0.5c1.3,0,2.6,0.3,3.8,1v3.1h-0.1c-0.5-0.4-1.1-0.7-1.7-1c-0.6-0.3-1.2-0.4-1.9-0.4
	c-0.4,0-0.9,0.1-1.3,0.2c-0.4,0.2-0.7,0.4-1,0.7c-0.3,0.3-0.5,0.6-0.7,1c-0.3,0.8-0.3,1.7,0,2.5c0.1,0.4,0.4,0.7,0.6,1
	c0.3,0.3,0.6,0.5,1,0.6c0.4,0.2,0.8,0.2,1.2,0.2c0.3,0,0.7,0,1-0.1c0.3-0.1,0.7-0.2,1-0.3c0.3-0.1,0.7-0.2,1-0.4
	c0.3-0.1,0.6-0.3,0.8-0.5h0.1L63.5,13.9z M66,11.7c0-0.5,0.1-1,0.3-1.4c0.3-0.5,0.7-0.9,1.2-1.2c0.7-0.4,1.5-0.7,2.3-0.8
	C71.1,8.1,72.3,8,73.5,8c0-0.6-0.2-1.3-0.7-1.7c-0.5-0.4-1.1-0.6-1.7-0.6c-0.6,0-1.2,0.1-1.8,0.3c-0.7,0.2-1.4,0.5-2.1,0.9h-0.1
	L67.6,4c0.6-0.3,1.2-0.5,1.8-0.6c0.7-0.2,1.5-0.3,2.3-0.2c1.3-0.1,2.6,0.4,3.6,1.2c0.9,1,1.3,2.3,1.2,3.6v6.3l-2.9,0.4V13
	c-0.7,0.5-1.4,1-2.2,1.3c-0.7,0.3-1.4,0.4-2.1,0.4c-0.9,0-1.7-0.2-2.4-0.8C66.3,13.4,65.9,12.6,66,11.7z M70.3,12.6
	c0.5,0,0.9-0.1,1.4-0.2c0.7-0.2,1.3-0.5,1.9-0.8v-2c-0.8,0-1.7,0.1-2.5,0.3c-0.5,0.1-1,0.3-1.4,0.5c-0.3,0.1-0.5,0.3-0.6,0.6
	c-0.1,0.2-0.1,0.4-0.2,0.6c0,0.3,0.1,0.6,0.4,0.8C69.5,12.5,69.9,12.6,70.3,12.6z M79.7,3.6l3-0.4V5c0.5-0.6,1.1-1,1.7-1.4
	c0.6-0.3,1.3-0.5,2-0.5c1.3,0,2.6,0.5,3.5,1.5c0.5,0.5,0.8,1.1,1.1,1.8c0.3,0.7,0.4,1.5,0.4,2.2c0,0.9-0.1,1.7-0.5,2.5
	c-0.3,0.7-0.7,1.3-1.2,1.9c-0.5,0.5-1.1,0.9-1.8,1.2c-0.7,0.3-1.4,0.4-2.1,0.4c-0.6,0-1.1-0.1-1.6-0.3c-0.5-0.2-1-0.5-1.5-0.8v5.1
	h-3.1V3.6z M88.4,8.9c0-0.5-0.1-0.9-0.2-1.3c-0.1-0.4-0.4-0.7-0.6-1c-0.3-0.3-0.6-0.5-1-0.6c-0.4-0.1-0.7-0.2-1.1-0.2
	c-0.5,0-0.9,0.1-1.3,0.2c-0.5,0.2-0.9,0.4-1.3,0.7v4.9c0.4,0.2,0.8,0.4,1.2,0.5c0.4,0.1,0.8,0.2,1.2,0.2c0.4,0,0.9-0.1,1.3-0.2
	c0.4-0.2,0.7-0.4,1-0.7c0.3-0.3,0.5-0.7,0.7-1.1C88.3,9.8,88.4,9.4,88.4,8.9z M96.1,10c0.1,0.7,0.6,1.4,1.2,1.8
	c0.7,0.4,1.5,0.6,2.3,0.6c0.7,0,1.5-0.1,2.2-0.2c0.7-0.1,1.3-0.3,2-0.6h0.1l-0.9,2.5c-0.3,0.1-0.6,0.2-0.9,0.2s-0.6,0.1-0.9,0.2
	s-0.6,0.1-1,0.1s-0.7,0-1.1,0c-0.9,0-1.7-0.1-2.5-0.4c-1.4-0.5-2.6-1.6-3.1-3c-0.3-0.7-0.4-1.5-0.4-2.3c0-0.8,0.1-1.5,0.4-2.2
	c0.3-0.7,0.7-1.3,1.2-1.9c1.1-1.1,2.6-1.8,4.1-1.8c0.8,0,1.6,0.1,2.4,0.5c0.6,0.3,1.2,0.7,1.7,1.3c0.4,0.6,0.8,1.2,1,1.9
	c0.2,0.7,0.3,1.5,0.3,2.2c0,0.1,0,0.3,0,0.5c0,0.2,0,0.4,0,0.5H96.1z M98.8,5.3c-0.7,0-1.4,0.3-1.9,0.8c-0.2,0.3-0.4,0.6-0.6,0.9
	c-0.1,0.4-0.2,0.7-0.3,1.1h5.3c0-0.7-0.3-1.5-0.8-2.1C100.2,5.6,99.5,5.3,98.8,5.3z"/>
<path id="Shape" class="st0" d="M4.1,9.5c-0.1,0-0.2,0-0.3,0C3.2,9.2,3.1,8.8,2.6,8.6c-0.1,0-0.2,0-0.2,0C1.7,8.8,0.7,9.2,0,9.4
	l3,3.1c0.1,0.1,0.3,0.2,0.4,0.1l15.9-5C20.2,7.3,21.1,7,22,6.7C22.6,6.6,23,6,22.9,5.3c0,0,0,0,0,0c-0.2-0.7-0.9-1.1-1.6-1.1
	c-0.3,0-0.5,0.1-0.8,0.2c-2,0.6-4,1.2-5.9,1.9c-0.5,0.2-1,0.2-1.4,0C10,5.1,6.9,4,3.9,2.9c-0.1,0-0.2,0-0.3,0L1.7,3.9L1.5,4l7.7,3.9
	H9.1L4.1,9.5z"/>
<path id="Escape." class="st0" d="M105.9,12.7c0-0.3,0-0.5,0.1-0.7c0.1-0.2,0.3-0.5,0.4-0.6c0.2-0.2,0.4-0.3,0.7-0.4
	c0.5-0.2,1.1-0.2,1.6,0c0.2,0.1,0.5,0.3,0.7,0.4c0.2,0.2,0.3,0.4,0.4,0.6c0.1,0.2,0.2,0.5,0.2,0.8c0,0.3-0.1,0.5-0.2,0.8
	c-0.1,0.2-0.3,0.5-0.4,0.6c-0.2,0.2-0.4,0.3-0.7,0.4c-0.5,0.2-1.1,0.2-1.6,0c-0.2-0.1-0.5-0.3-0.7-0.4c-0.2-0.2-0.3-0.4-0.4-0.6
	C105.9,13.3,105.8,13,105.9,12.7z"/>
</svg>
